<svg width="15" height="18" viewBox="0 0 15 18" fill="none" xmlns="http://www.w3.org/2000/svg">
<path d="M13.5453 4.84615C14.1188 4.84615 14.5838 4.38121 14.5838 3.80769C14.5838 3.23416 14.1188 2.76923 13.5453 2.76923C12.9718 2.76923 12.5068 3.23416 12.5068 3.80769C12.5068 4.38121 12.9718 4.84615 13.5453 4.84615Z" fill="#E22416"/>
<path d="M10.7763 2.76925C11.3498 2.76925 11.8147 2.30431 11.8147 1.73078C11.8147 1.15726 11.3498 0.692322 10.7763 0.692322C10.2027 0.692322 9.73779 1.15726 9.73779 1.73078C9.73779 2.30431 10.2027 2.76925 10.7763 2.76925Z" fill="#E22416"/>
<path d="M8.00672 2.07692C8.58025 2.07692 9.04519 1.61199 9.04519 1.03846C9.04519 0.464935 8.58025 0 8.00672 0C7.4332 0 6.96826 0.464935 6.96826 1.03846C6.96826 1.61199 7.4332 2.07692 8.00672 2.07692Z" fill="#E22416"/>
<path d="M5.23768 3.46157C5.81121 3.46157 6.27614 2.99663 6.27614 2.42311C6.27614 1.84958 5.81121 1.38464 5.23768 1.38464C4.66415 1.38464 4.19922 1.84958 4.19922 2.42311C4.19922 2.99663 4.66415 3.46157 5.23768 3.46157Z" fill="#E22416"/>
<path d="M12.5068 3.80768V8.30768C12.5068 8.49876 12.3517 8.65384 12.1606 8.65384C11.9696 8.65384 11.8145 8.49876 11.8145 8.30768V1.73076H9.73755V7.61538C9.73755 7.80645 9.58247 7.96153 9.3914 7.96153C9.20032 7.96153 9.04524 7.80645 9.04524 7.61538V1.03845H6.96832V7.61538C6.96832 7.80645 6.81324 7.96153 6.62217 7.96153C6.43109 7.96153 6.27601 7.80645 6.27601 7.61538V2.42307H4.19909V11.0769L2.79717 9.15853C2.38178 8.51814 1.57109 8.30353 0.977089 8.67045C0.385166 9.04568 0.238397 9.86399 0.648243 10.5023C0.648243 10.5023 2.90932 13.9244 3.87301 15.3893C4.8367 16.8542 6.39786 18 9.31732 18C14.151 18 14.5837 14.2671 14.5837 13.1538C14.5837 12.0406 14.5837 3.80768 14.5837 3.80768H12.5068Z" fill="#E22416"/>
</svg>
