<svg width="61" height="59" viewBox="0 0 61 59" fill="none" xmlns="http://www.w3.org/2000/svg">
<g filter="url(#filter0_dd_290_2374)">
<path d="M36.5173 15.7568L36.3257 15.751H36.2952C35.4321 15.751 34.6224 16.0973 33.921 16.6299C33.2196 17.1625 33.014 17.6254 33.014 17.6254L38.1702 22.6645C38.1702 22.6645 38.8294 22.3299 39.2021 21.8529C39.5747 21.376 40.0388 20.7936 40.0411 19.6785C40.0452 17.599 38.4983 15.8764 36.5173 15.7568ZM19.1982 15.7568L19.3898 15.751H19.4202C20.2833 15.751 21.0931 16.0973 21.7944 16.6299C22.4958 17.1625 22.7015 17.6254 22.7015 17.6254L17.5452 22.6645C17.5452 22.6645 16.886 22.3299 16.5134 21.8529C16.1407 21.376 15.6767 20.7936 15.6743 19.6762C15.6702 17.599 17.2171 15.8764 19.1982 15.7568Z" fill="#E22416"/>
<path d="M35.7856 34.535C35.785 34.5343 35.7847 34.5335 35.7847 34.5326C35.7847 34.5317 35.785 34.5309 35.7856 34.5303C37.7602 32.156 38.6977 28.8889 37.8774 25.4312C37.0781 22.0609 33.6194 18.6525 30.2403 17.8926C23.5219 16.382 17.5494 21.475 17.5494 27.9373C17.5471 30.3473 18.393 32.6813 19.9389 34.5303C19.9395 34.5309 19.9398 34.5317 19.9398 34.5326C19.9398 34.5335 19.9395 34.5343 19.9389 34.535L17.1352 37.3123C17.1346 37.3129 17.1343 37.3138 17.1343 37.3146C17.1343 37.3155 17.1346 37.3163 17.1352 37.317L18.4828 38.6359C18.4835 38.6365 18.4843 38.6368 18.4852 38.6368C18.486 38.6368 18.4869 38.6365 18.4875 38.6359L21.2666 35.8603C21.2673 35.8598 21.2681 35.8594 21.269 35.8594C21.2698 35.8594 21.2707 35.8598 21.2713 35.8603C23.1215 37.4041 25.4549 38.2497 27.8646 38.2497C30.2743 38.2497 32.6076 37.4041 34.4578 35.8603H34.4619L37.2328 38.6359C37.2335 38.6365 37.2343 38.6368 37.2352 38.6368C37.236 38.6368 37.2369 38.6365 37.2375 38.6359L38.6391 37.3123L35.7856 34.535ZM28.7994 28.8748H22.2369H22.2328V27.0057L22.2358 27.0027H26.9233V20.4373H28.7983L28.7994 28.8748Z" fill="#E22416"/>
</g>
<defs>
<filter id="filter0_dd_290_2374" x="-2.14209" y="-3" width="65" height="65" filterUnits="userSpaceOnUse" color-interpolation-filters="sRGB">
<feFlood flood-opacity="0" result="BackgroundImageFix"/>
<feColorMatrix in="SourceAlpha" type="matrix" values="0 0 0 0 0 0 0 0 0 0 0 0 0 0 0 0 0 0 127 0" result="hardAlpha"/>
<feOffset dx="5" dy="5"/>
<feGaussianBlur stdDeviation="7.5"/>
<feColorMatrix type="matrix" values="0 0 0 0 0.886275 0 0 0 0 0.141176 0 0 0 0 0.0862745 0 0 0 0.55 0"/>
<feBlend mode="normal" in2="BackgroundImageFix" result="effect1_dropShadow_290_2374"/>
<feColorMatrix in="SourceAlpha" type="matrix" values="0 0 0 0 0 0 0 0 0 0 0 0 0 0 0 0 0 0 127 0" result="hardAlpha"/>
<feOffset dx="-5" dy="-5"/>
<feGaussianBlur stdDeviation="5"/>
<feColorMatrix type="matrix" values="0 0 0 0 1 0 0 0 0 1 0 0 0 0 1 0 0 0 1 0"/>
<feBlend mode="normal" in2="effect1_dropShadow_290_2374" result="effect2_dropShadow_290_2374"/>
<feBlend mode="normal" in="SourceGraphic" in2="effect2_dropShadow_290_2374" result="shape"/>
</filter>
</defs>
</svg>
