<svg width="29" height="28" viewBox="0 0 29 28" fill="none" xmlns="http://www.w3.org/2000/svg">
<path d="M10.9997 0.874985C10.9997 0.642924 11.0919 0.420369 11.256 0.256277C11.4201 0.0921856 11.6427 0 11.8748 0L17.1252 0C17.3573 0 17.5799 0.0921856 17.744 0.256277C17.9081 0.420369 18.0003 0.642924 18.0003 0.874985C18.0003 1.10705 17.9081 1.3296 17.744 1.49369C17.5799 1.65778 17.3573 1.74997 17.1252 1.74997H16.2502V3.62244C18.6335 3.96644 20.8627 5.00503 22.6592 6.60847C24.4556 8.21191 25.7398 10.3091 26.3511 12.638C26.9624 14.967 26.8739 17.4244 26.0965 19.7033C25.3191 21.9822 23.8874 23.9815 21.9802 25.4516L23.032 26.505C23.1964 26.6691 23.2888 26.8917 23.2889 27.1239C23.2891 27.3561 23.197 27.5788 23.0329 27.7431C22.8688 27.9074 22.6462 27.9998 22.414 28C22.1818 28.0002 21.959 27.9081 21.7947 27.744L20.4891 26.4385C18.6601 27.465 16.5974 28.0026 14.5 27.9995C12.4026 28.0026 10.3399 27.465 8.51094 26.4385L7.20532 27.744C7.12396 27.8253 7.02739 27.8897 6.92113 27.9336C6.81487 27.9775 6.701 28.0001 6.58602 28C6.47103 27.9999 6.35719 27.9772 6.251 27.9331C6.1448 27.889 6.04832 27.8245 5.96708 27.7431C5.88583 27.6618 5.8214 27.5652 5.77748 27.459C5.73355 27.3527 5.71098 27.2389 5.71107 27.1239C5.71123 26.8917 5.80363 26.6691 5.96795 26.505L7.02155 25.4516C5.11437 23.9817 3.68263 21.9825 2.90517 19.7037C2.12772 17.4249 2.03902 14.9676 2.65015 12.6387C3.26129 10.3098 4.54516 8.21261 6.3414 6.60906C8.13763 5.00551 10.3666 3.96671 12.7498 3.62244V1.74997H11.8748C11.6427 1.74997 11.4201 1.65778 11.256 1.49369C11.0919 1.3296 10.9997 1.10705 10.9997 0.874985ZM15.3751 9.62483C15.3751 9.39277 15.2829 9.17022 15.1188 9.00613C14.9547 8.84203 14.7321 8.74985 14.5 8.74985C14.2679 8.74985 14.0453 8.84203 13.8812 9.00613C13.7171 9.17022 13.6249 9.39277 13.6249 9.62483V15.5082L11.1239 19.6732C11.0044 19.8723 10.9689 20.1107 11.0252 20.336C11.0815 20.5613 11.225 20.755 11.4241 20.8745C11.6232 20.994 11.8617 21.0295 12.087 20.9733C12.3123 20.917 12.5061 20.7735 12.6256 20.5744L15.2508 16.1995C15.3322 16.0636 15.3751 15.9081 15.3751 15.7497V9.62483ZM2.00383 9.42709C1.55099 9.03323 1.18403 8.55043 0.925779 8.00871C0.667523 7.467 0.523492 6.87794 0.502641 6.27819C0.481791 5.67844 0.584567 5.08081 0.80458 4.52247C1.02459 3.96412 1.35713 3.45701 1.78153 3.03267C2.20592 2.60832 2.71309 2.27581 3.27149 2.05583C3.8299 1.83584 4.42759 1.73307 5.02741 1.75392C5.62723 1.77477 6.21635 1.91879 6.75813 2.17701C7.29991 2.43524 7.78276 2.80216 8.17666 3.25494C5.51632 4.60548 3.35451 6.76704 2.00383 9.42709ZM20.8233 3.25494C21.2172 2.80216 21.7001 2.43524 22.2419 2.17701C22.7836 1.91879 23.3728 1.77477 23.9726 1.75392C24.5724 1.73307 25.1701 1.83584 25.7285 2.05583C26.2869 2.27581 26.7941 2.60832 27.2185 3.03267C27.6429 3.45701 27.9754 3.96412 28.1954 4.52247C28.4154 5.08081 28.5182 5.67844 28.4974 6.27819C28.4765 6.87794 28.3325 7.467 28.0742 8.00871C27.816 8.55043 27.449 9.03323 26.9962 9.42709C25.6455 6.76704 23.4837 4.60548 20.8233 3.25494Z" fill="#112466"/>
<path d="M10.9997 0.874985C10.9997 0.642924 11.0919 0.420369 11.256 0.256277C11.4201 0.0921856 11.6427 0 11.8748 0L17.1252 0C17.3573 0 17.5799 0.0921856 17.744 0.256277C17.9081 0.420369 18.0003 0.642924 18.0003 0.874985C18.0003 1.10705 17.9081 1.3296 17.744 1.49369C17.5799 1.65778 17.3573 1.74997 17.1252 1.74997H16.2502V3.62244C18.6335 3.96644 20.8627 5.00503 22.6592 6.60847C24.4556 8.21191 25.7398 10.3091 26.3511 12.638C26.9624 14.967 26.8739 17.4244 26.0965 19.7033C25.3191 21.9822 23.8874 23.9815 21.9802 25.4516L23.032 26.505C23.1964 26.6691 23.2888 26.8917 23.2889 27.1239C23.2891 27.3561 23.197 27.5788 23.0329 27.7431C22.8688 27.9074 22.6462 27.9998 22.414 28C22.1818 28.0002 21.959 27.9081 21.7947 27.744L20.4891 26.4385C18.6601 27.465 16.5974 28.0026 14.5 27.9995C12.4026 28.0026 10.3399 27.465 8.51094 26.4385L7.20532 27.744C7.12396 27.8253 7.02739 27.8897 6.92113 27.9336C6.81487 27.9775 6.701 28.0001 6.58602 28C6.47103 27.9999 6.35719 27.9772 6.251 27.9331C6.1448 27.889 6.04832 27.8245 5.96708 27.7431C5.88583 27.6618 5.8214 27.5652 5.77748 27.459C5.73355 27.3527 5.71098 27.2389 5.71107 27.1239C5.71123 26.8917 5.80363 26.6691 5.96795 26.505L7.02155 25.4516C5.11437 23.9817 3.68263 21.9825 2.90517 19.7037C2.12772 17.4249 2.03902 14.9676 2.65015 12.6387C3.26129 10.3098 4.54516 8.21261 6.3414 6.60906C8.13763 5.00551 10.3666 3.96671 12.7498 3.62244V1.74997H11.8748C11.6427 1.74997 11.4201 1.65778 11.256 1.49369C11.0919 1.3296 10.9997 1.10705 10.9997 0.874985ZM15.3751 9.62483C15.3751 9.39277 15.2829 9.17022 15.1188 9.00613C14.9547 8.84203 14.7321 8.74985 14.5 8.74985C14.2679 8.74985 14.0453 8.84203 13.8812 9.00613C13.7171 9.17022 13.6249 9.39277 13.6249 9.62483V15.5082L11.1239 19.6732C11.0044 19.8723 10.9689 20.1107 11.0252 20.336C11.0815 20.5613 11.225 20.755 11.4241 20.8745C11.6232 20.994 11.8617 21.0295 12.087 20.9733C12.3123 20.917 12.5061 20.7735 12.6256 20.5744L15.2508 16.1995C15.3322 16.0636 15.3751 15.9081 15.3751 15.7497V9.62483ZM2.00383 9.42709C1.55099 9.03323 1.18403 8.55043 0.925779 8.00871C0.667523 7.467 0.523492 6.87794 0.502641 6.27819C0.481791 5.67844 0.584567 5.08081 0.80458 4.52247C1.02459 3.96412 1.35713 3.45701 1.78153 3.03267C2.20592 2.60832 2.71309 2.27581 3.27149 2.05583C3.8299 1.83584 4.42759 1.73307 5.02741 1.75392C5.62723 1.77477 6.21635 1.91879 6.75813 2.17701C7.29991 2.43524 7.78276 2.80216 8.17666 3.25494C5.51632 4.60548 3.35451 6.76704 2.00383 9.42709ZM20.8233 3.25494C21.2172 2.80216 21.7001 2.43524 22.2419 2.17701C22.7836 1.91879 23.3728 1.77477 23.9726 1.75392C24.5724 1.73307 25.1701 1.83584 25.7285 2.05583C26.2869 2.27581 26.7941 2.60832 27.2185 3.03267C27.6429 3.45701 27.9754 3.96412 28.1954 4.52247C28.4154 5.08081 28.5182 5.67844 28.4974 6.27819C28.4765 6.87794 28.3325 7.467 28.0742 8.00871C27.816 8.55043 27.449 9.03323 26.9962 9.42709C25.6455 6.76704 23.4837 4.60548 20.8233 3.25494Z" fill="black" fill-opacity="0.2"/>
<path d="M10.9997 0.874985C10.9997 0.642924 11.0919 0.420369 11.256 0.256277C11.4201 0.0921856 11.6427 0 11.8748 0L17.1252 0C17.3573 0 17.5799 0.0921856 17.744 0.256277C17.9081 0.420369 18.0003 0.642924 18.0003 0.874985C18.0003 1.10705 17.9081 1.3296 17.744 1.49369C17.5799 1.65778 17.3573 1.74997 17.1252 1.74997H16.2502V3.62244C18.6335 3.96644 20.8627 5.00503 22.6592 6.60847C24.4556 8.21191 25.7398 10.3091 26.3511 12.638C26.9624 14.967 26.8739 17.4244 26.0965 19.7033C25.3191 21.9822 23.8874 23.9815 21.9802 25.4516L23.032 26.505C23.1964 26.6691 23.2888 26.8917 23.2889 27.1239C23.2891 27.3561 23.197 27.5788 23.0329 27.7431C22.8688 27.9074 22.6462 27.9998 22.414 28C22.1818 28.0002 21.959 27.9081 21.7947 27.744L20.4891 26.4385C18.6601 27.465 16.5974 28.0026 14.5 27.9995C12.4026 28.0026 10.3399 27.465 8.51094 26.4385L7.20532 27.744C7.12396 27.8253 7.02739 27.8897 6.92113 27.9336C6.81487 27.9775 6.701 28.0001 6.58602 28C6.47103 27.9999 6.35719 27.9772 6.251 27.9331C6.1448 27.889 6.04832 27.8245 5.96708 27.7431C5.88583 27.6618 5.8214 27.5652 5.77748 27.459C5.73355 27.3527 5.71098 27.2389 5.71107 27.1239C5.71123 26.8917 5.80363 26.6691 5.96795 26.505L7.02155 25.4516C5.11437 23.9817 3.68263 21.9825 2.90517 19.7037C2.12772 17.4249 2.03902 14.9676 2.65015 12.6387C3.26129 10.3098 4.54516 8.21261 6.3414 6.60906C8.13763 5.00551 10.3666 3.96671 12.7498 3.62244V1.74997H11.8748C11.6427 1.74997 11.4201 1.65778 11.256 1.49369C11.0919 1.3296 10.9997 1.10705 10.9997 0.874985ZM15.3751 9.62483C15.3751 9.39277 15.2829 9.17022 15.1188 9.00613C14.9547 8.84203 14.7321 8.74985 14.5 8.74985C14.2679 8.74985 14.0453 8.84203 13.8812 9.00613C13.7171 9.17022 13.6249 9.39277 13.6249 9.62483V15.5082L11.1239 19.6732C11.0044 19.8723 10.9689 20.1107 11.0252 20.336C11.0815 20.5613 11.225 20.755 11.4241 20.8745C11.6232 20.994 11.8617 21.0295 12.087 20.9733C12.3123 20.917 12.5061 20.7735 12.6256 20.5744L15.2508 16.1995C15.3322 16.0636 15.3751 15.9081 15.3751 15.7497V9.62483ZM2.00383 9.42709C1.55099 9.03323 1.18403 8.55043 0.925779 8.00871C0.667523 7.467 0.523492 6.87794 0.502641 6.27819C0.481791 5.67844 0.584567 5.08081 0.80458 4.52247C1.02459 3.96412 1.35713 3.45701 1.78153 3.03267C2.20592 2.60832 2.71309 2.27581 3.27149 2.05583C3.8299 1.83584 4.42759 1.73307 5.02741 1.75392C5.62723 1.77477 6.21635 1.91879 6.75813 2.17701C7.29991 2.43524 7.78276 2.80216 8.17666 3.25494C5.51632 4.60548 3.35451 6.76704 2.00383 9.42709ZM20.8233 3.25494C21.2172 2.80216 21.7001 2.43524 22.2419 2.17701C22.7836 1.91879 23.3728 1.77477 23.9726 1.75392C24.5724 1.73307 25.1701 1.83584 25.7285 2.05583C26.2869 2.27581 26.7941 2.60832 27.2185 3.03267C27.6429 3.45701 27.9754 3.96412 28.1954 4.52247C28.4154 5.08081 28.5182 5.67844 28.4974 6.27819C28.4765 6.87794 28.3325 7.467 28.0742 8.00871C27.816 8.55043 27.449 9.03323 26.9962 9.42709C25.6455 6.76704 23.4837 4.60548 20.8233 3.25494Z" stroke="#112466"/>
<path d="M10.9997 0.874985C10.9997 0.642924 11.0919 0.420369 11.256 0.256277C11.4201 0.0921856 11.6427 0 11.8748 0L17.1252 0C17.3573 0 17.5799 0.0921856 17.744 0.256277C17.9081 0.420369 18.0003 0.642924 18.0003 0.874985C18.0003 1.10705 17.9081 1.3296 17.744 1.49369C17.5799 1.65778 17.3573 1.74997 17.1252 1.74997H16.2502V3.62244C18.6335 3.96644 20.8627 5.00503 22.6592 6.60847C24.4556 8.21191 25.7398 10.3091 26.3511 12.638C26.9624 14.967 26.8739 17.4244 26.0965 19.7033C25.3191 21.9822 23.8874 23.9815 21.9802 25.4516L23.032 26.505C23.1964 26.6691 23.2888 26.8917 23.2889 27.1239C23.2891 27.3561 23.197 27.5788 23.0329 27.7431C22.8688 27.9074 22.6462 27.9998 22.414 28C22.1818 28.0002 21.959 27.9081 21.7947 27.744L20.4891 26.4385C18.6601 27.465 16.5974 28.0026 14.5 27.9995C12.4026 28.0026 10.3399 27.465 8.51094 26.4385L7.20532 27.744C7.12396 27.8253 7.02739 27.8897 6.92113 27.9336C6.81487 27.9775 6.701 28.0001 6.58602 28C6.47103 27.9999 6.35719 27.9772 6.251 27.9331C6.1448 27.889 6.04832 27.8245 5.96708 27.7431C5.88583 27.6618 5.8214 27.5652 5.77748 27.459C5.73355 27.3527 5.71098 27.2389 5.71107 27.1239C5.71123 26.8917 5.80363 26.6691 5.96795 26.505L7.02155 25.4516C5.11437 23.9817 3.68263 21.9825 2.90517 19.7037C2.12772 17.4249 2.03902 14.9676 2.65015 12.6387C3.26129 10.3098 4.54516 8.21261 6.3414 6.60906C8.13763 5.00551 10.3666 3.96671 12.7498 3.62244V1.74997H11.8748C11.6427 1.74997 11.4201 1.65778 11.256 1.49369C11.0919 1.3296 10.9997 1.10705 10.9997 0.874985ZM15.3751 9.62483C15.3751 9.39277 15.2829 9.17022 15.1188 9.00613C14.9547 8.84203 14.7321 8.74985 14.5 8.74985C14.2679 8.74985 14.0453 8.84203 13.8812 9.00613C13.7171 9.17022 13.6249 9.39277 13.6249 9.62483V15.5082L11.1239 19.6732C11.0044 19.8723 10.9689 20.1107 11.0252 20.336C11.0815 20.5613 11.225 20.755 11.4241 20.8745C11.6232 20.994 11.8617 21.0295 12.087 20.9733C12.3123 20.917 12.5061 20.7735 12.6256 20.5744L15.2508 16.1995C15.3322 16.0636 15.3751 15.9081 15.3751 15.7497V9.62483ZM2.00383 9.42709C1.55099 9.03323 1.18403 8.55043 0.925779 8.00871C0.667523 7.467 0.523492 6.87794 0.502641 6.27819C0.481791 5.67844 0.584567 5.08081 0.80458 4.52247C1.02459 3.96412 1.35713 3.45701 1.78153 3.03267C2.20592 2.60832 2.71309 2.27581 3.27149 2.05583C3.8299 1.83584 4.42759 1.73307 5.02741 1.75392C5.62723 1.77477 6.21635 1.91879 6.75813 2.17701C7.29991 2.43524 7.78276 2.80216 8.17666 3.25494C5.51632 4.60548 3.35451 6.76704 2.00383 9.42709ZM20.8233 3.25494C21.2172 2.80216 21.7001 2.43524 22.2419 2.17701C22.7836 1.91879 23.3728 1.77477 23.9726 1.75392C24.5724 1.73307 25.1701 1.83584 25.7285 2.05583C26.2869 2.27581 26.7941 2.60832 27.2185 3.03267C27.6429 3.45701 27.9754 3.96412 28.1954 4.52247C28.4154 5.08081 28.5182 5.67844 28.4974 6.27819C28.4765 6.87794 28.3325 7.467 28.0742 8.00871C27.816 8.55043 27.449 9.03323 26.9962 9.42709C25.6455 6.76704 23.4837 4.60548 20.8233 3.25494Z" stroke="black" stroke-opacity="0.2"/>
</svg>
