<svg width="59" height="59" viewBox="0 0 59 59" fill="none" xmlns="http://www.w3.org/2000/svg">
<g filter="url(#filter0_dd_266_3581)">
<path d="M38.25 35.2505H27.75C27.336 35.2505 27 34.9145 27 34.5005C27 34.0865 27 19.9145 27 19.5005C27 19.0865 27.336 18.7505 27.75 18.7505H38.25C38.664 18.7505 39 19.0865 39 19.5005V34.5005C39 34.9145 38.664 35.2505 38.25 35.2505Z" fill="#ECEFF1"/>
<path d="M30.75 23.2505H27.75C27.336 23.2505 27 22.9145 27 22.5005C27 22.0865 27.336 21.7505 27.75 21.7505H30.75C31.164 21.7505 31.5 22.0865 31.5 22.5005C31.5 22.9145 31.164 23.2505 30.75 23.2505Z" fill="#388E3C"/>
<path d="M30.75 26.2505H27.75C27.336 26.2505 27 25.9145 27 25.5005C27 25.0865 27.336 24.7505 27.75 24.7505H30.75C31.164 24.7505 31.5 25.0865 31.5 25.5005C31.5 25.9145 31.164 26.2505 30.75 26.2505Z" fill="#388E3C"/>
<path d="M30.75 29.2505H27.75C27.336 29.2505 27 28.9145 27 28.5005C27 28.0865 27.336 27.7505 27.75 27.7505H30.75C31.164 27.7505 31.5 28.0865 31.5 28.5005C31.5 28.9145 31.164 29.2505 30.75 29.2505Z" fill="#388E3C"/>
<path d="M30.75 32.2505H27.75C27.336 32.2505 27 31.9145 27 31.5005C27 31.0865 27.336 30.7505 27.75 30.7505H30.75C31.164 30.7505 31.5 31.0865 31.5 31.5005C31.5 31.9145 31.164 32.2505 30.75 32.2505Z" fill="#388E3C"/>
<path d="M35.25 23.2505H33.75C33.336 23.2505 33 22.9145 33 22.5005C33 22.0865 33.336 21.7505 33.75 21.7505H35.25C35.664 21.7505 36 22.0865 36 22.5005C36 22.9145 35.664 23.2505 35.25 23.2505Z" fill="#388E3C"/>
<path d="M35.25 26.2505H33.75C33.336 26.2505 33 25.9145 33 25.5005C33 25.0865 33.336 24.7505 33.75 24.7505H35.25C35.664 24.7505 36 25.0865 36 25.5005C36 25.9145 35.664 26.2505 35.25 26.2505Z" fill="#388E3C"/>
<path d="M35.25 29.2505H33.75C33.336 29.2505 33 28.9145 33 28.5005C33 28.0865 33.336 27.7505 33.75 27.7505H35.25C35.664 27.7505 36 28.0865 36 28.5005C36 28.9145 35.664 29.2505 35.25 29.2505Z" fill="#388E3C"/>
<path d="M35.25 32.2505H33.75C33.336 32.2505 33 31.9145 33 31.5005C33 31.0865 33.336 30.7505 33.75 30.7505H35.25C35.664 30.7505 36 31.0865 36 31.5005C36 31.9145 35.664 32.2505 35.25 32.2505Z" fill="#388E3C"/>
<path d="M28.2285 15.923C28.0575 15.7805 27.828 15.719 27.612 15.764L15.612 18.014C15.2565 18.08 15 18.389 15 18.7505V35.2505C15 35.6105 15.2565 35.921 15.612 35.987L27.612 38.237C27.657 38.246 27.7035 38.2505 27.75 38.2505C27.924 38.2505 28.0935 38.1905 28.2285 38.078C28.401 37.9355 28.5 37.7225 28.5 37.5005V16.5005C28.5 16.277 28.401 16.0655 28.2285 15.923Z" fill="#2E7D32"/>
<path d="M25.314 29.507L22.9425 26.7965L25.341 23.7125C25.596 23.3855 25.536 22.9145 25.2105 22.6595C24.885 22.4045 24.414 22.4645 24.1575 22.79L21.936 25.646L20.064 23.507C19.7895 23.192 19.3155 23.1635 19.0065 23.4365C18.6945 23.7095 18.663 24.1835 18.936 24.494L20.9985 26.852L18.9075 29.54C18.6525 29.867 18.7125 30.338 19.038 30.593C19.176 30.6995 19.3395 30.7505 19.5 30.7505C19.7235 30.7505 19.944 30.6515 20.0925 30.461L22.005 28.001L24.186 30.4925C24.3345 30.6635 24.5415 30.7505 24.75 30.7505C24.9255 30.7505 25.101 30.689 25.2435 30.5645C25.5555 30.2915 25.587 29.8175 25.314 29.507Z" fill="#FAFAFA"/>
</g>
<defs>
<filter id="filter0_dd_266_3581" x="0" y="0.749512" width="59" height="57.501" filterUnits="userSpaceOnUse" color-interpolation-filters="sRGB">
<feFlood flood-opacity="0" result="BackgroundImageFix"/>
<feColorMatrix in="SourceAlpha" type="matrix" values="0 0 0 0 0 0 0 0 0 0 0 0 0 0 0 0 0 0 127 0" result="hardAlpha"/>
<feOffset dx="5" dy="5"/>
<feGaussianBlur stdDeviation="7.5"/>
<feColorMatrix type="matrix" values="0 0 0 0 0.180392 0 0 0 0 0.490196 0 0 0 0 0.196078 0 0 0 0.4 0"/>
<feBlend mode="normal" in2="BackgroundImageFix" result="effect1_dropShadow_266_3581"/>
<feColorMatrix in="SourceAlpha" type="matrix" values="0 0 0 0 0 0 0 0 0 0 0 0 0 0 0 0 0 0 127 0" result="hardAlpha"/>
<feOffset dx="-5" dy="-5"/>
<feGaussianBlur stdDeviation="5"/>
<feColorMatrix type="matrix" values="0 0 0 0 1 0 0 0 0 1 0 0 0 0 1 0 0 0 1 0"/>
<feBlend mode="normal" in2="effect1_dropShadow_266_3581" result="effect2_dropShadow_266_3581"/>
<feBlend mode="normal" in="SourceGraphic" in2="effect2_dropShadow_266_3581" result="shape"/>
</filter>
</defs>
</svg>
