<svg width="11" height="12" viewBox="0 0 11 12" fill="none" xmlns="http://www.w3.org/2000/svg">
<path fill-rule="evenodd" clip-rule="evenodd" d="M10.2591 5.50792L0.852221 0.076748C0.766184 0.0266678 0.668482 0.000114265 0.568932 -0.000244141H0.567291C0.467688 0.00015145 0.369939 0.0267186 0.283838 0.0767949C0.19713 0.126245 0.125142 0.197877 0.0752629 0.284339C0.025384 0.370801 -0.000588869 0.468979 1.01311e-05 0.568795V11.431C-0.000383816 11.5309 0.0256198 11.6291 0.075388 11.7157C0.125156 11.8023 0.196922 11.8742 0.28342 11.9242C0.369917 11.9741 0.468075 12.0003 0.567956 12.0001C0.667836 11.9999 0.765893 11.9734 0.852198 11.9231L10.2591 6.4919C10.3454 6.44204 10.4172 6.37033 10.467 6.28396C10.5169 6.1976 10.5431 6.09963 10.5431 5.99991C10.5431 5.90018 10.5169 5.80222 10.467 5.71585C10.4172 5.62949 10.3454 5.55778 10.2591 5.50792Z" fill="#112466"/>
<path fill-rule="evenodd" clip-rule="evenodd" d="M10.2591 5.50792L0.852221 0.076748C0.766184 0.0266678 0.668482 0.000114265 0.568932 -0.000244141H0.567291C0.467688 0.00015145 0.369939 0.0267186 0.283838 0.0767949C0.19713 0.126245 0.125142 0.197877 0.0752629 0.284339C0.025384 0.370801 -0.000588869 0.468979 1.01311e-05 0.568795V11.431C-0.000383816 11.5309 0.0256198 11.6291 0.075388 11.7157C0.125156 11.8023 0.196922 11.8742 0.28342 11.9242C0.369917 11.9741 0.468075 12.0003 0.567956 12.0001C0.667836 11.9999 0.765893 11.9734 0.852198 11.9231L10.2591 6.4919C10.3454 6.44204 10.4172 6.37033 10.467 6.28396C10.5169 6.1976 10.5431 6.09963 10.5431 5.99991C10.5431 5.90018 10.5169 5.80222 10.467 5.71585C10.4172 5.62949 10.3454 5.55778 10.2591 5.50792Z" fill="black" fill-opacity="0.2"/>
</svg>
