<svg width="29" height="26" viewBox="0 0 29 26" fill="none" xmlns="http://www.w3.org/2000/svg">
<path d="M24.3994 1.17038C24.079 0.84997 23.5597 0.85008 23.2392 1.17038C22.9189 1.49074 22.9189 2.01011 23.2393 2.33047C25.5737 4.66481 26.8593 7.76854 26.8593 11.0699C26.8593 11.5229 27.2267 11.8902 27.6797 11.8902C28.1327 11.8902 28.5 11.5229 28.5 11.0699C28.5 7.33027 27.0437 3.81458 24.3994 1.17038Z" fill="#112466"/>
<path d="M24.3994 1.17038C24.079 0.84997 23.5597 0.85008 23.2392 1.17038C22.9189 1.49074 22.9189 2.01011 23.2393 2.33047C25.5737 4.66481 26.8593 7.76854 26.8593 11.0699C26.8593 11.5229 27.2267 11.8902 27.6797 11.8902C28.1327 11.8902 28.5 11.5229 28.5 11.0699C28.5 7.33027 27.0437 3.81458 24.3994 1.17038Z" fill="black" fill-opacity="0.2"/>
<path d="M5.76055 1.17057C5.44014 0.850157 4.92083 0.850267 4.60041 1.17057C1.95627 3.81493 0.5 7.33057 0.5 11.07C0.5 11.5231 0.867281 11.8904 1.32031 11.8904C1.77334 11.8904 2.14062 11.5231 2.14062 11.07C2.14062 7.76884 3.42622 4.6651 5.76055 2.33066C6.08091 2.0103 6.08091 1.49093 5.76055 1.17057Z" fill="#112466"/>
<path d="M5.76055 1.17057C5.44014 0.850157 4.92083 0.850267 4.60041 1.17057C1.95627 3.81493 0.5 7.33057 0.5 11.07C0.5 11.5231 0.867281 11.8904 1.32031 11.8904C1.77334 11.8904 2.14062 11.5231 2.14062 11.07C2.14062 7.76884 3.42622 4.6651 5.76055 2.33066C6.08091 2.0103 6.08091 1.49093 5.76055 1.17057Z" fill="black" fill-opacity="0.2"/>
<path d="M20.7539 3.65533C20.4336 3.97569 20.4336 4.49506 20.7539 4.81547C22.4247 6.48601 23.3447 8.7072 23.3447 11.0699C23.3447 11.5229 23.712 11.8902 24.165 11.8902C24.6181 11.8902 24.9853 11.5229 24.9853 11.0699C24.9853 8.26893 23.8946 5.63573 21.914 3.65527C21.5937 3.33497 21.0743 3.33502 20.7539 3.65533Z" fill="#112466"/>
<path d="M20.7539 3.65533C20.4336 3.97569 20.4336 4.49506 20.7539 4.81547C22.4247 6.48601 23.3447 8.7072 23.3447 11.0699C23.3447 11.5229 23.712 11.8902 24.165 11.8902C24.6181 11.8902 24.9853 11.5229 24.9853 11.0699C24.9853 8.26893 23.8946 5.63573 21.914 3.65527C21.5937 3.33497 21.0743 3.33502 20.7539 3.65533Z" fill="black" fill-opacity="0.2"/>
<path d="M8.24559 3.65571C7.92523 3.33541 7.40586 3.33546 7.0855 3.65577C5.10516 5.63633 4.01453 8.26937 4.01453 11.0699C4.01453 11.5229 4.38186 11.8902 4.83484 11.8902C5.28792 11.8902 5.65515 11.5229 5.65515 11.0699C5.65515 8.70758 6.57516 6.48645 8.24564 4.81585C8.56595 4.49544 8.56595 3.97602 8.24559 3.65571Z" fill="#112466"/>
<path d="M8.24559 3.65571C7.92523 3.33541 7.40586 3.33546 7.0855 3.65577C5.10516 5.63633 4.01453 8.26937 4.01453 11.0699C4.01453 11.5229 4.38186 11.8902 4.83484 11.8902C5.28792 11.8902 5.65515 11.5229 5.65515 11.0699C5.65515 8.70758 6.57516 6.48645 8.24564 4.81585C8.56595 4.49544 8.56595 3.97602 8.24559 3.65571Z" fill="black" fill-opacity="0.2"/>
<path d="M21.4709 17.0268V12.8272C21.4709 11.2954 20.9832 9.84185 20.0606 8.62369C19.2894 7.60563 18.2377 6.81025 17.0561 6.34224C16.8915 5.0783 15.8081 4.09906 14.5001 4.09906C13.192 4.09906 12.1085 5.0783 11.944 6.34224C10.7624 6.81025 9.71074 7.60563 8.93959 8.62369C8.0169 9.84185 7.5292 11.2954 7.5292 12.8272V17.0268L5.85855 20.3682C5.73146 20.6224 5.74502 20.9244 5.89443 21.1663C6.04389 21.4081 6.30797 21.5553 6.59224 21.5553H22.4079C22.6922 21.5553 22.9562 21.4081 23.1057 21.1663C23.2551 20.9244 23.2688 20.6225 23.1416 20.3682L21.4709 17.0268Z" fill="#112466"/>
<path d="M21.4709 17.0268V12.8272C21.4709 11.2954 20.9832 9.84185 20.0606 8.62369C19.2894 7.60563 18.2377 6.81025 17.0561 6.34224C16.8915 5.0783 15.8081 4.09906 14.5001 4.09906C13.192 4.09906 12.1085 5.0783 11.944 6.34224C10.7624 6.81025 9.71074 7.60563 8.93959 8.62369C8.0169 9.84185 7.5292 11.2954 7.5292 12.8272V17.0268L5.85855 20.3682C5.73146 20.6224 5.74502 20.9244 5.89443 21.1663C6.04389 21.4081 6.30797 21.5553 6.59224 21.5553H22.4079C22.6922 21.5553 22.9562 21.4081 23.1057 21.1663C23.2551 20.9244 23.2688 20.6225 23.1416 20.3682L21.4709 17.0268Z" fill="black" fill-opacity="0.2"/>
<path d="M14.5 25.0699C15.9768 25.0699 17.2828 24.327 18.0658 23.1959H10.9341C11.7172 24.327 13.0231 25.0699 14.5 25.0699Z" fill="#112466"/>
<path d="M14.5 25.0699C15.9768 25.0699 17.2828 24.327 18.0658 23.1959H10.9341C11.7172 24.327 13.0231 25.0699 14.5 25.0699Z" fill="black" fill-opacity="0.2"/>
</svg>
