<svg width="27" height="28" viewBox="0 0 27 28" fill="none" xmlns="http://www.w3.org/2000/svg">
<path d="M15.1334 2.25481V1.61538C15.1334 1.18696 14.9613 0.776079 14.655 0.473135C14.3486 0.170192 13.9332 0 13.5 0C13.0668 0 12.6514 0.170192 12.3451 0.473135C12.0388 0.776079 11.8667 1.18696 11.8667 1.61538V2.25481C9.80408 2.5109 7.83367 3.2525 6.12076 4.4174L5.40141 3.70192C5.09457 3.39845 4.6784 3.22797 4.24447 3.22797C3.81053 3.22797 3.39436 3.39845 3.08752 3.70192C2.78068 4.00539 2.6083 4.41698 2.6083 4.84615C2.6083 5.27532 2.78068 5.68692 3.08752 5.99039L3.6728 6.56923C1.58227 8.92083 0.430515 11.9457 0.433355 15.0769C0.433355 22.2028 6.29498 28 13.5 28C20.7051 28 26.5667 22.2028 26.5667 15.0769C26.5667 8.49827 21.57 3.05173 15.1334 2.25481ZM13.5 18.3077C12.7296 18.3075 11.984 18.038 11.3951 17.5468C10.8061 17.0555 10.4116 16.3743 10.2813 15.6233C10.151 14.8723 10.2933 14.0999 10.683 13.4426C11.0728 12.7854 11.6848 12.2855 12.4111 12.0313V7C12.4111 6.71438 12.5259 6.44046 12.7301 6.2385C12.9343 6.03654 13.2112 5.92308 13.5 5.92308C13.7888 5.92308 14.0658 6.03654 14.27 6.2385C14.4742 6.44046 14.5889 6.71438 14.5889 7V12.0313C15.3152 12.2855 15.9273 12.7854 16.317 13.4426C16.7067 14.0999 16.849 14.8723 16.7187 15.6233C16.5884 16.3743 16.1939 17.0555 15.605 17.5468C15.016 18.038 14.2704 18.3075 13.5 18.3077Z" fill="#112466"/>
<path d="M15.1334 2.25481V1.61538C15.1334 1.18696 14.9613 0.776079 14.655 0.473135C14.3486 0.170192 13.9332 0 13.5 0C13.0668 0 12.6514 0.170192 12.3451 0.473135C12.0388 0.776079 11.8667 1.18696 11.8667 1.61538V2.25481C9.80408 2.5109 7.83367 3.2525 6.12076 4.4174L5.40141 3.70192C5.09457 3.39845 4.6784 3.22797 4.24447 3.22797C3.81053 3.22797 3.39436 3.39845 3.08752 3.70192C2.78068 4.00539 2.6083 4.41698 2.6083 4.84615C2.6083 5.27532 2.78068 5.68692 3.08752 5.99039L3.6728 6.56923C1.58227 8.92083 0.430515 11.9457 0.433355 15.0769C0.433355 22.2028 6.29498 28 13.5 28C20.7051 28 26.5667 22.2028 26.5667 15.0769C26.5667 8.49827 21.57 3.05173 15.1334 2.25481ZM13.5 18.3077C12.7296 18.3075 11.984 18.038 11.3951 17.5468C10.8061 17.0555 10.4116 16.3743 10.2813 15.6233C10.151 14.8723 10.2933 14.0999 10.683 13.4426C11.0728 12.7854 11.6848 12.2855 12.4111 12.0313V7C12.4111 6.71438 12.5259 6.44046 12.7301 6.2385C12.9343 6.03654 13.2112 5.92308 13.5 5.92308C13.7888 5.92308 14.0658 6.03654 14.27 6.2385C14.4742 6.44046 14.5889 6.71438 14.5889 7V12.0313C15.3152 12.2855 15.9273 12.7854 16.317 13.4426C16.7067 14.0999 16.849 14.8723 16.7187 15.6233C16.5884 16.3743 16.1939 17.0555 15.605 17.5468C15.016 18.038 14.2704 18.3075 13.5 18.3077Z" fill="black" fill-opacity="0.2"/>
</svg>
