<svg width="29" height="28" viewBox="0 0 29 28" fill="none" xmlns="http://www.w3.org/2000/svg">
<path d="M14.5 0C22.2316 0 28.5 6.26837 28.5 14C28.5 21.7316 22.2316 28 14.5 28C6.76836 28 0.499998 21.7316 0.499998 14C0.499998 6.26837 6.76836 0 14.5 0ZM8.03846 16.1538H14.5C14.7856 16.1538 15.0595 16.0404 15.2615 15.8384C15.4635 15.6365 15.5769 15.3625 15.5769 15.0769V5.38462C15.5769 5.099 15.4635 4.82508 15.2615 4.62312C15.0595 4.42115 14.7856 4.30769 14.5 4.30769C14.2144 4.30769 13.9405 4.42115 13.7385 4.62312C13.5365 4.82508 13.4231 5.099 13.4231 5.38462V14H8.03846C7.75284 14 7.47892 14.1135 7.27696 14.3154C7.075 14.5174 6.96154 14.7913 6.96154 15.0769C6.96154 15.3625 7.075 15.6365 7.27696 15.8384C7.47892 16.0404 7.75284 16.1538 8.03846 16.1538Z" fill="#112466"/>
<path d="M14.5 0C22.2316 0 28.5 6.26837 28.5 14C28.5 21.7316 22.2316 28 14.5 28C6.76836 28 0.499998 21.7316 0.499998 14C0.499998 6.26837 6.76836 0 14.5 0ZM8.03846 16.1538H14.5C14.7856 16.1538 15.0595 16.0404 15.2615 15.8384C15.4635 15.6365 15.5769 15.3625 15.5769 15.0769V5.38462C15.5769 5.099 15.4635 4.82508 15.2615 4.62312C15.0595 4.42115 14.7856 4.30769 14.5 4.30769C14.2144 4.30769 13.9405 4.42115 13.7385 4.62312C13.5365 4.82508 13.4231 5.099 13.4231 5.38462V14H8.03846C7.75284 14 7.47892 14.1135 7.27696 14.3154C7.075 14.5174 6.96154 14.7913 6.96154 15.0769C6.96154 15.3625 7.075 15.6365 7.27696 15.8384C7.47892 16.0404 7.75284 16.1538 8.03846 16.1538Z" fill="black" fill-opacity="0.2"/>
</svg>
