<svg width="29" height="28" viewBox="0 0 29 28" fill="none" xmlns="http://www.w3.org/2000/svg">
<path d="M14.5 0C22.2323 0 28.5 6.26769 28.5 14C28.5 21.7323 22.2323 28 14.5 28C6.76769 28 0.499998 21.7323 0.499998 14C0.499998 6.26769 6.76769 0 14.5 0ZM20.0414 7.69596L12.9741 12.4748C12.5076 12.8108 12.1921 13.3169 12.0959 13.8838C11.9997 14.4506 12.1305 15.0325 12.46 15.5036C12.7895 15.9747 13.2912 16.2972 13.8566 16.4012C14.4221 16.5053 15.0057 16.3826 15.4813 16.0596C15.6903 15.9122 15.8724 15.7301 16.0198 15.5212L20.7987 8.45385C20.8722 8.34847 20.9063 8.22056 20.895 8.09254C20.8838 7.96452 20.8278 7.84456 20.7369 7.75369C20.646 7.66281 20.5261 7.60682 20.398 7.59553C20.27 7.58424 20.1421 7.61836 20.0367 7.69192L20.0414 7.69596ZM14.5 25.8462C21.0288 25.8462 26.3462 20.5322 26.3462 14C26.3517 12.4067 26.0331 10.829 25.4098 9.36274C24.7865 7.89647 23.8714 6.57231 22.7203 5.47077C22.6308 5.38152 22.5244 5.31099 22.4073 5.26328C22.2902 5.21557 22.1649 5.19165 22.0385 5.1929C21.912 5.19415 21.7872 5.22055 21.6711 5.27056C21.555 5.32058 21.45 5.3932 21.3622 5.4842C21.2745 5.5752 21.2058 5.68276 21.16 5.8006C21.1143 5.91845 21.0924 6.04422 21.0958 6.17058C21.0992 6.29695 21.1277 6.42138 21.1796 6.53663C21.2315 6.65187 21.3059 6.75562 21.3984 6.84183C22.3643 7.76639 23.1322 8.87772 23.6553 10.1083C24.1784 11.3388 24.4459 12.6629 24.4413 14C24.4413 19.4815 19.9815 23.9413 14.5 23.9413C9.01846 23.9413 4.55865 19.4815 4.55865 14C4.55865 8.83952 8.51096 4.585 13.5476 4.10577V7.80769C13.5476 8.06029 13.6479 8.30253 13.8265 8.48114C14.0052 8.65975 14.2474 8.7601 14.5 8.7601C14.7526 8.7601 14.9948 8.65975 15.1735 8.48114C15.3521 8.30253 15.4524 8.06029 15.4524 7.80769V3.10625C15.4524 2.85366 15.3521 2.61141 15.1735 2.4328C14.9948 2.25419 14.7526 2.15385 14.5 2.15385C7.96779 2.15385 2.65384 7.47115 2.65384 14C2.65384 20.5288 7.96779 25.8462 14.5 25.8462Z" fill="#112466"/>
<path d="M14.5 0C22.2323 0 28.5 6.26769 28.5 14C28.5 21.7323 22.2323 28 14.5 28C6.76769 28 0.499998 21.7323 0.499998 14C0.499998 6.26769 6.76769 0 14.5 0ZM20.0414 7.69596L12.9741 12.4748C12.5076 12.8108 12.1921 13.3169 12.0959 13.8838C11.9997 14.4506 12.1305 15.0325 12.46 15.5036C12.7895 15.9747 13.2912 16.2972 13.8566 16.4012C14.4221 16.5053 15.0057 16.3826 15.4813 16.0596C15.6903 15.9122 15.8724 15.7301 16.0198 15.5212L20.7987 8.45385C20.8722 8.34847 20.9063 8.22056 20.895 8.09254C20.8838 7.96452 20.8278 7.84456 20.7369 7.75369C20.646 7.66281 20.5261 7.60682 20.398 7.59553C20.27 7.58424 20.1421 7.61836 20.0367 7.69192L20.0414 7.69596ZM14.5 25.8462C21.0288 25.8462 26.3462 20.5322 26.3462 14C26.3517 12.4067 26.0331 10.829 25.4098 9.36274C24.7865 7.89647 23.8714 6.57231 22.7203 5.47077C22.6308 5.38152 22.5244 5.31099 22.4073 5.26328C22.2902 5.21557 22.1649 5.19165 22.0385 5.1929C21.912 5.19415 21.7872 5.22055 21.6711 5.27056C21.555 5.32058 21.45 5.3932 21.3622 5.4842C21.2745 5.5752 21.2058 5.68276 21.16 5.8006C21.1143 5.91845 21.0924 6.04422 21.0958 6.17058C21.0992 6.29695 21.1277 6.42138 21.1796 6.53663C21.2315 6.65187 21.3059 6.75562 21.3984 6.84183C22.3643 7.76639 23.1322 8.87772 23.6553 10.1083C24.1784 11.3388 24.4459 12.6629 24.4413 14C24.4413 19.4815 19.9815 23.9413 14.5 23.9413C9.01846 23.9413 4.55865 19.4815 4.55865 14C4.55865 8.83952 8.51096 4.585 13.5476 4.10577V7.80769C13.5476 8.06029 13.6479 8.30253 13.8265 8.48114C14.0052 8.65975 14.2474 8.7601 14.5 8.7601C14.7526 8.7601 14.9948 8.65975 15.1735 8.48114C15.3521 8.30253 15.4524 8.06029 15.4524 7.80769V3.10625C15.4524 2.85366 15.3521 2.61141 15.1735 2.4328C14.9948 2.25419 14.7526 2.15385 14.5 2.15385C7.96779 2.15385 2.65384 7.47115 2.65384 14C2.65384 20.5288 7.96779 25.8462 14.5 25.8462Z" fill="black" fill-opacity="0.2"/>
</svg>
